:SAMPLES-PER-SECOND 30
:FULLY-SPECIFIED
:DEGREES
1788
root  -57.7408 37.9408 6.68573 -27.7559 -82.6949 19.2786
RightUpLeg  -21.3 -13.2105 -8.61685
RightLeg  31.4153 4.27481 2.5692
RightFoot  1.47691 0.000180028 0.086686
RightToes  3.49245e-010 0 -3.6325e-017
Spine  30.3424 -3.16657 2.85802
Spine1  9.12712 -2.05135 -0.391067
HEad  -36.6926 -2.95217 -4.86486
LeftShoulder1  1.39501 -2.43943 -16.7798
LeftArm  -16.3392 -36.0684 -43.3372
LeftForeArm  2.18225 -63.1257 -22.9011
LeftHand  -0.238279 0.102786 5.26299
RightShoulder  0.440959 -1.74136 18.7974
RightArm  -23.8485 28.7333 20.2948
RightForeArm  -8.92757 71.439 39.5609
RightHand  -0.470493 2.78625 -6.89387
LeftUpLeg  -1.82787 -1.63458 10.3789
LeftLeg  45.607 -0.985503 -0.632211
LeftFoot  -9.57716 0.127318 -9.75072
LeftToes  -2.21735e-009 9.83027e-011 -4.04511e-011
1789
root  -58.6379 38.3589 6.45262 -26.5725 -83.0414 18.5165
RightUpLeg  -19.3823 -13.5528 -7.92776
RightLeg  29.8366 4.62627 2.62469
RightFoot  0.915227 0.0592275 -0.492554
RightToes  3.49245e-010 0 -3.6325e-017
Spine  28.197 -3.66661 3.8453
Spine1  9.76448 -2.45128 0.0419473
HEad  -35.7169 -2.11169 -5.95957
LeftShoulder1  1.35103 -2.15815 -17.1888
LeftArm  -17.1503 -35.2509 -43.1608
LeftForeArm  1.04376 -61.2532 -21.0819
LeftHand  -0.219138 0.163345 4.89084
RightShoulder  0.512489 -1.38138 17.7871
RightArm  -21.0961 32.712 20.0057
RightForeArm  -16.1602 68.0671 32.3159
RightHand  -0.418345 2.32002 -6.49335
LeftUpLeg  -5.07096 -1.94009 10.2192
LeftLeg  50.7004 0.0267618 0.452192
LeftFoot  -2.68736 0.373388 -4.25703
LeftToes  -2.21735e-009 9.83027e-011 -4.04511e-011
1790
root  -59.3335 38.6877 6.28852 -31.2051 -83.6473 21.9177
RightUpLeg  -16.2066 -13.4716 -8.0416
RightLeg  28.5154 5.07988 2.74445
RightFoot  0.460489 0.0976617 -0.913254
RightToes  3.49245e-010 0 -3.6325e-017
Spine  28.029 -4.12352 4.63651
Spine1  9.86313 -2.54626 -0.137618
HEad  -34.2821 -1.73943 -6.08061
LeftShoulder1  1.29576 -2.06265 -16.5603
LeftArm  -17.4515 -35.4168 -42.7653
LeftForeArm  -1.90701 -58.2637 -18.7184
LeftHand  -0.224613 0.339212 5.20099
RightShoulder  0.567493 -1.0113 16.2119
RightArm  -18.2781 36.5852 20.9031
RightForeArm  -23.0127 62.9428 25.0433
RightHand  -0.35622 2.80624 -5.28324
LeftUpLeg  -6.41164 -1.78632 9.69974
LeftLeg  55.5411 -0.748238 -0.691712
LeftFoot  -4.4606 0.374804 -5.78704
LeftToes  -2.21735e-009 9.83027e-011 -4.04511e-011
1791
root  -60.041 39.0012 6.15575 -38.2295 -84.8594 28.399
RightUpLeg  -13.9134 -13.7232 -7.81195
RightLeg  27.1363 6.14951 3.17581
RightFoot  0.398369 0.14533 -1.3855
RightToes  3.49245e-010 0 -3.6325e-017
Spine  27.2512 -4.16312 5.8089
Spine1  9.65504 -2.04295 -0.969726
HEad  -32.5311 -1.78521 -6.37606
LeftShoulder1  1.29934 -2.20081 -16.013
LeftArm  -17.4229 -35.8796 -43.3186
LeftForeArm  -3.66354 -54.8294 -16.4262
LeftHand  -0.206886 1.22271 5.65219
RightShoulder  0.610985 -0.702753 15.1217
RightArm  -14.8538 40.3456 21.2893
RightForeArm  -28.454 57.5603 20.1227
RightHand  -0.301759 3.67226 -4.10837
LeftUpLeg  -8.02138 -0.490963 9.29028
LeftLeg  58.806 -1.37688 -1.89248
LeftFoot  -5.19028 0.414782 -7.13959
LeftToes  -2.21735e-009 9.83027e-011 -4.04511e-011
1792
root  -60.7992 39.3305 6.01939 -47.6761 -85.7811 37.6898
RightUpLeg  -11.7941 -14.0454 -7.75114
RightLeg  25.5333 7.28875 3.55021
RightFoot  0.315694 0.153233 -1.48108
RightToes  3.49245e-010 0 -3.6325e-017
Spine  25.5577 -3.80974 6.50162
Spine1  10.0162 -1.53249 -1.22491
HEad  -30.4464 -1.72236 -7.40132
LeftShoulder1  1.36455 -2.53073 -15.8396
LeftArm  -17.2518 -36.6404 -44.1944
LeftForeArm  -5.93634 -50.4522 -14.0721
LeftHand  -0.174661 1.02045 4.53777
RightShoulder  0.598896 -0.631216 14.0625
RightArm  -10.9761 43.9648 21.9751
RightForeArm  -33.561 52.1457 16.662
RightHand  -0.386412 4.09414 -4.99025
LeftUpLeg  -9.38851 0.651337 8.43568
LeftLeg  59.7052 -0.864988 -1.04194
LeftFoot  -6.25257 0.361578 -7.26268
LeftToes  -2.21735e-009 9.83027e-011 -4.04511e-011
1793
root  -61.4756 39.5571 5.86302 -54.4092 -86.1364 44.4692
RightUpLeg  -10.1783 -14.2046 -7.71721
RightLeg  24.4711 7.84091 3.67242
RightFoot  -0.14265 0.187168 -1.91732
RightToes  3.49245e-010 0 -3.6325e-017
Spine  23.8297 -3.57649 6.30941
Spine1  9.95784 -1.5985 -0.691939
HEad  -28.3047 -1.25561 -7.72315
LeftShoulder1  1.37354 -2.68772 -15.3688
LeftArm  -17.3248 -37.3382 -44.7547
LeftForeArm  -7.22956 -45.6873 -11.9595
LeftHand  -0.128481 1.19421 3.46686
RightShoulder  0.614899 -0.431664 13.1274
RightArm  -5.96051 47.3135 24.6461
RightForeArm  -37.24 46.4424 13.8553
RightHand  -0.448919 4.74125 -5.4439
LeftUpLeg  -10.9107 1.77524 7.65849
LeftLeg  58.4995 0.0105645 0.548436
LeftFoot  -7.05657 0.274891 -6.21516
LeftToes  -2.21735e-009 9.83027e-011 -4.04511e-011
